<?xml version="1.0" encoding="UTF-8"?><svg id="Layer_1" xmlns="http://www.w3.org/2000/svg" width="400" height="456" viewBox="0 0 400 456"><defs><style>.cls-1{fill:#facd8e;}.cls-2{fill:#ffdcdb;}.cls-3{fill:#87cefa;}</style></defs><path class="cls-3" d="m115.09,215.18c-12.79-15.16-22.14-30.85-30.99-47.55-9.48,16.99-14.85,36.31-14.85,56.81,0,11.19,1.61,20.55,4.6,30.85,17.18-15.76,42.98-21.35,67.32-14.91,8.11,2.69,16.23,6.18,24.51,7.71-19.77-7.17-36.84-16.62-50.59-32.91Z"/><path class="cls-2" d="m201.96,95.54c-49.49,0-92.44,26.24-113.91,64.7,8.69,16.4,17.87,31.82,30.44,46.71,13.51,16,30.28,25.29,49.7,32.33,5.34.99,10.76,1.15,16.29-.29,13.98-3.64,22.52-19.66,31.83-29.85,20.96-21.84,70.81-26.07,101.86-10.05-10.09,4.37-18.63,13.11-17.08,23.3,2.33,13.11,13.2,8.74,23.29,5.1,5.23-2.23,5.27-2.29,5.96-6.89.06-1.51.1-3.02.1-4.54,0-66.55-57.53-120.51-128.5-120.51Z"/><path class="cls-1" d="m245.84,300.89c-36.4-5.81-63.51,17.43-97.59,24.7-14.69,2.69-28.06,1.02-40.79-2.7,23.36,23.13,56.41,37.56,93.07,37.56,28.18,0,54.24-8.53,75.4-22.99-5.94-5.81-7.95-13.93-9.95-22.05-1.55-9.44-10.84-13.08-20.14-14.53Z"/><path class="cls-3" d="m330.75,240.19c-4.86-1.94-9.59-3.56-14.91-1.29-10.27,3.71-26.08,8.15-28.45-5.19-1.58-10.38,3.95-23.72,14.23-28.17-31.61-16.31-65.6,5.19-86.94,27.42-9.48,10.38-18.18,23.72-32.4,27.42s-27.66-2.96-41.1-7.41c-24.34-6.44-50.14-.85-67.32,14.91,5.75,19.77,16.64,37.55,31.23,52.01,12.99,3.79,26.63,5.5,41.62,2.75,34.77-7.41,62.44-31.13,99.58-25.2,9.48,1.48,20.55,5.19,22.13,14.82,2.04,8.29,2.51,16.57,8.57,22.5,31.4-21.46,52.23-55.71,53.76-94.58Z"/></svg>