<svg xmlns="http://www.w3.org/2000/svg" xmlns:xlink="http://www.w3.org/1999/xlink" width="1920" height="1080" viewBox="0 0 1920 1080"><defs><style>.a{clip-path:url(#b);}.b{fill:#fff;}.c,.d,.e{fill:#707070;}.d{font-size:20px;}.d,.e,.f{font-family:HelveticaNeue, Helvetica Neue;}.e{font-size:35px;}.f{fill:#5f5f5f;font-size:44px;}.g{fill:#b7b7b7;}</style><clipPath id="b"><rect width="1920" height="1080"/></clipPath></defs><g id="a" class="a"><rect class="b" width="1920" height="1080"/><rect class="b" width="677" height="144" transform="translate(622 711)"/><path class="c" d="M1,1V143H676V1H1M0,0H677V144H0Z" transform="translate(622 711)"/><rect class="b" width="1232" height="292" transform="translate(344 382)"/><path class="c" d="M1,1V291H1231V1H1M0,0H1232V292H0Z" transform="translate(344 382)"/><path class="c" d="M1231.885,292.486-.115.486.115-.486l1232,292Z" transform="translate(344.5 382.5)"/><path class="c" d="M.115,292.486l-.231-.973,1232-292,.231.973Z" transform="translate(344.5 382.5)"/><rect class="b" width="1920" height="150"/><path class="c" d="M1,1V149H1919V1H1M0,0H1920V150H0Z"/><rect class="b" width="78" height="78" transform="translate(630 35)"/><path class="c" d="M1,1V77H77V1H1M0,0H78V78H0Z" transform="translate(630 35)"/><text class="d" transform="translate(646 79)"><tspan x="0" y="0">Logo</tspan></text><text class="e" transform="translate(774 88)"><tspan x="0" y="0">Forside</tspan></text><text class="e" transform="translate(973 88)"><tspan x="0" y="0">Om </tspan></text><text class="e" transform="translate(1121 88)"><tspan x="0" y="0">Galleri</tspan></text><rect class="b" width="366" height="60" transform="translate(494 191)"/><path class="c" d="M1,1V59H365V1H1M0,0H366V60H0Z" transform="translate(494 191)"/><rect class="b" width="385" height="61" transform="translate(860 284)"/><path class="c" d="M1,1V60H384V1H1M0,0H385V61H0Z" transform="translate(860 284)"/><rect class="b" width="385" height="61" transform="translate(768 498)"/><path class="c" d="M1,1V60H384V1H1M0,0H385V61H0Z" transform="translate(768 498)"/><text class="f" transform="translate(649 238)"><tspan x="0" y="0">H1</tspan></text><text class="f" transform="translate(1025 331)"><tspan x="0" y="0">H2</tspan></text><text class="f" transform="translate(905 545)"><tspan x="0" y="0">Video</tspan></text><rect class="g" width="1920" height="157" transform="translate(0 923)"/><path class="c" d="M1,1V156H1919V1H1M0,0H1920V157H0Z" transform="translate(0 923)"/><text class="f" transform="translate(1765 1044)"><tspan x="0" y="0">Footer</tspan></text><path class="c" d="M676.9,144.489-.1.489.1-.489l677,144Z" transform="translate(622.5 711.5)"/><path class="c" d="M.1,144.489l-.208-.978,677-144,.208.978Z" transform="translate(622.5 711.5)"/><path class="c" d="M81,1A138.545,138.545,0,0,0,49.7,4.471,99.954,99.954,0,0,0,24.206,13.91,65.306,65.306,0,0,0,14.464,20.4a45.113,45.113,0,0,0-7.307,7.393C3.072,33.1,1,38.718,1,44.5S3.072,55.9,7.158,61.211A45.112,45.112,0,0,0,14.464,68.6a65.306,65.306,0,0,0,9.741,6.485A99.954,99.954,0,0,0,49.7,84.529,138.545,138.545,0,0,0,81,88a138.545,138.545,0,0,0,31.3-3.471,99.954,99.954,0,0,0,25.492-9.439,65.306,65.306,0,0,0,9.741-6.485,45.112,45.112,0,0,0,7.307-7.393C158.928,55.9,161,50.282,161,44.5s-2.072-11.4-6.158-16.711a45.113,45.113,0,0,0-7.307-7.393,65.306,65.306,0,0,0-9.741-6.485A99.954,99.954,0,0,0,112.3,4.471,138.545,138.545,0,0,0,81,1m0-1c44.735,0,81,19.923,81,44.5S125.735,89,81,89,0,69.077,0,44.5,36.265,0,81,0Z" transform="translate(743 35)"/><rect class="b" width="385" height="61" transform="translate(768 753)"/><path class="c" d="M1,1V60H384V1H1M0,0H385V61H0Z" transform="translate(768 753)"/><text class="f" transform="translate(818 800)"><tspan x="0" y="0">Youtube-video</tspan></text></g></svg>