<svg xmlns="http://www.w3.org/2000/svg" xmlns:xlink="http://www.w3.org/1999/xlink" width="1920" height="1654" viewBox="0 0 1920 1654"><defs><style>.a{clip-path:url(#b);}.b{fill:#b7b7b7;}.c,.f,.g{fill:#707070;}.d{fill:#5f5f5f;font-size:44px;}.d,.f,.g{font-family:HelveticaNeue, Helvetica Neue;}.e{fill:#fff;}.f{font-size:20px;}.g{font-size:35px;}</style><clipPath id="b"><rect width="1920" height="1654"/></clipPath></defs><g id="a" class="a"><rect class="e" width="1920" height="1654"/><rect class="b" width="1920" height="157" transform="translate(0 1497)"/><path class="c" d="M1,1V156H1919V1H1M0,0H1920V157H0Z" transform="translate(0 1497)"/><text class="d" transform="translate(1765 1618)"><tspan x="0" y="0">Footer</tspan></text><rect class="e" width="1920" height="150"/><path class="c" d="M1,1V149H1919V1H1M0,0H1920V150H0Z"/><rect class="e" width="78" height="78" transform="translate(630 35)"/><path class="c" d="M1,1V77H77V1H1M0,0H78V78H0Z" transform="translate(630 35)"/><text class="f" transform="translate(646 79)"><tspan x="0" y="0">Logo</tspan></text><text class="g" transform="translate(774 88)"><tspan x="0" y="0">Forside</tspan></text><text class="g" transform="translate(973 88)"><tspan x="0" y="0">Om </tspan></text><text class="g" transform="translate(1121 88)"><tspan x="0" y="0">Galleri</tspan></text><path class="c" d="M81,1A138.545,138.545,0,0,0,49.7,4.471,99.954,99.954,0,0,0,24.206,13.91,65.306,65.306,0,0,0,14.464,20.4a45.113,45.113,0,0,0-7.307,7.393C3.072,33.1,1,38.718,1,44.5S3.072,55.9,7.158,61.211A45.112,45.112,0,0,0,14.464,68.6a65.306,65.306,0,0,0,9.741,6.485A99.954,99.954,0,0,0,49.7,84.529,138.545,138.545,0,0,0,81,88a138.545,138.545,0,0,0,31.3-3.471,99.954,99.954,0,0,0,25.492-9.439,65.306,65.306,0,0,0,9.741-6.485,45.112,45.112,0,0,0,7.307-7.393C158.928,55.9,161,50.282,161,44.5s-2.072-11.4-6.158-16.711a45.113,45.113,0,0,0-7.307-7.393,65.306,65.306,0,0,0-9.741-6.485A99.954,99.954,0,0,0,112.3,4.471,138.545,138.545,0,0,0,81,1m0-1c44.735,0,81,19.923,81,44.5S125.735,89,81,89,0,69.077,0,44.5,36.265,0,81,0Z" transform="translate(1090 30)"/><rect class="e" width="1920" height="179" transform="translate(0 150)"/><path class="c" d="M1,1V178H1919V1H1M0,0H1920V179H0Z" transform="translate(0 150)"/><path class="c" d="M1919.954,179.5-.046.5l.093-1,1920,179Z" transform="translate(0.5 150.5)"/><path class="c" d="M.046,179.5l-.093-1,1920-179,.093,1Z" transform="translate(0.5 150.5)"/><rect class="e" width="366" height="60" transform="translate(1145 210)"/><path class="c" d="M1,1V59H365V1H1M0,0H366V60H0Z" transform="translate(1145 210)"/><text class="d" transform="translate(1300 257)"><tspan x="0" y="0">H1</tspan></text><g transform="translate(425 348)"><rect class="e" width="456" height="252"/><path class="c" d="M1,1V251H455V1H1M0,0H456V252H0Z"/><rect class="e" width="456" height="252" transform="translate(614)"/><path class="c" d="M1,1V251H455V1H1M0,0H456V252H0Z" transform="translate(614)"/></g><g transform="translate(425 644)"><rect class="e" width="456" height="252"/><path class="c" d="M1,1V251H455V1H1M0,0H456V252H0Z"/><rect class="e" width="456" height="252" transform="translate(614)"/><path class="c" d="M1,1V251H455V1H1M0,0H456V252H0Z" transform="translate(614)"/></g><g transform="translate(425 940)"><rect class="e" width="456" height="252"/><path class="c" d="M1,1V251H455V1H1M0,0H456V252H0Z"/><rect class="e" width="456" height="252" transform="translate(614)"/><path class="c" d="M1,1V251H455V1H1M0,0H456V252H0Z" transform="translate(614)"/></g><rect class="e" width="1070" height="207" transform="translate(425 1236)"/><path class="c" d="M1,1V206H1069V1H1M0,0H1070V207H0Z" transform="translate(425 1236)"/><path class="c" d="M456.759,252.438l-457-252L.241-.438l457,252Z" transform="translate(425.5 348.5)"/><path class="c" d="M.241,252.438l-.483-.876,457-252,.483.876Z" transform="translate(425.5 348.5)"/><path class="c" d="M456.759,252.438l-457-252L.241-.438l457,252Z" transform="translate(425.5 644.5)"/><path class="c" d="M.241,252.438l-.483-.876,457-252,.483.876Z" transform="translate(425.5 644.5)"/><path class="c" d="M455.758,252.438l-456-252L.242-.438l456,252Z" transform="translate(1039.5 644.5)"/><path class="c" d="M.242,252.438l-.484-.875,456-252,.484.875Z" transform="translate(1039.5 644.5)"/><path class="c" d="M455.758,252.438l-456-252L.242-.438l456,252Z" transform="translate(1039.5 348.5)"/><path class="c" d="M.242,252.438l-.484-.875,456-252,.484.875Z" transform="translate(1039.5 348.5)"/><path class="c" d="M455.758,252.438l-456-252L.242-.438l456,252Z" transform="translate(1039.5 940.5)"/><path class="c" d="M.242,252.438l-.484-.875,456-252,.484.875Z" transform="translate(1039.5 940.5)"/><path class="c" d="M441.752,252.434l-442-252,.5-.869,442,252Z" transform="translate(425.5 940.5)"/><path class="c" d="M.241,252.438l-.483-.876,457-252,.483.876Z" transform="translate(425.5 940.5)"/><path class="c" d="M1069.905,207.491-.095.491l.19-.982,1070,207Z" transform="translate(425.5 1236.5)"/><path class="c" d="M.095,207.491l-.19-.982,1070-207,.19.982Z" transform="translate(425.5 1236.5)"/></g></svg>