<svg xmlns="http://www.w3.org/2000/svg" xmlns:xlink="http://www.w3.org/1999/xlink" width="1920" height="1080" viewBox="0 0 1920 1080"><defs><style>.a{clip-path:url(#b);}.b{fill:#fff;}.c,.d,.e{fill:#707070;}.d{font-size:20px;}.d,.e,.f,.h{font-family:HelveticaNeue, Helvetica Neue;}.e{font-size:35px;}.f,.h{fill:#5f5f5f;}.f{font-size:44px;}.g{fill:#b7b7b7;}.h{font-size:21px;}</style><clipPath id="b"><rect width="1920" height="1080"/></clipPath></defs><g id="a" class="a"><rect class="b" width="1920" height="1080"/><rect class="b" width="1920" height="150"/><path class="c" d="M1,1V149H1919V1H1M0,0H1920V150H0Z"/><rect class="b" width="78" height="78" transform="translate(630 35)"/><path class="c" d="M1,1V77H77V1H1M0,0H78V78H0Z" transform="translate(630 35)"/><text class="d" transform="translate(646 79)"><tspan x="0" y="0">Logo</tspan></text><text class="e" transform="translate(774 88)"><tspan x="0" y="0">Forside</tspan></text><text class="e" transform="translate(973 88)"><tspan x="0" y="0">Om </tspan></text><text class="e" transform="translate(1121 88)"><tspan x="0" y="0">Galleri</tspan></text><rect class="b" width="366" height="60" transform="translate(468 196)"/><path class="c" d="M1,1V59H365V1H1M0,0H366V60H0Z" transform="translate(468 196)"/><text class="f" transform="translate(623 243)"><tspan x="0" y="0">H1</tspan></text><rect class="b" width="385" height="61" transform="translate(810 284)"/><path class="c" d="M1,1V60H384V1H1M0,0H385V61H0Z" transform="translate(810 284)"/><text class="f" transform="translate(975 331)"><tspan x="0" y="0">H2</tspan></text><rect class="g" width="1920" height="157" transform="translate(1 923)"/><path class="c" d="M1,1V156H1919V1H1M0,0H1920V157H0Z" transform="translate(1 923)"/><text class="f" transform="translate(1766 1044)"><tspan x="0" y="0">Footer</tspan></text><rect class="b" width="510" height="510" transform="translate(310 413)"/><path class="c" d="M1,1V509H509V1H1M0,0H510V510H0Z" transform="translate(310 413)"/><text class="h" transform="translate(913 404)"><tspan x="0" y="0"></tspan><tspan x="0" y="25">Lorem ipsum dolor sit amet consectetur adipisicing elit.</tspan><tspan x="0" y="50">Necessitatibus eligendi tenetur aperiam esse sed atque! </tspan><tspan x="0" y="75">Praesentium dolorem earum ut illo sequi iure quis incidunt porro delectus. </tspan><tspan x="0" y="100">Esse quos repudiandae optio.</tspan><tspan x="0" y="125"></tspan><tspan x="0" y="150">Lorem ipsum dolor sit amet consectetur adipisicing elit. </tspan><tspan x="0" y="175">Culpa sapiente reiciendis error mollitia, ipsam ullam ipsa. </tspan><tspan x="0" y="200">Accusantium expedita nihil vel nulla, odit fuga,</tspan><tspan x="0" y="225">ad assumenda vitae ducimus corporis eum eos.</tspan><tspan x="0" y="250"></tspan><tspan x="0" y="275">Lorem ipsum dolor sit amet consectetur adipisicing elit. </tspan><tspan x="0" y="300">Culpa sapiente reiciendis error mollitia, ipsam ullam ipsa.</tspan><tspan x="0" y="325">Accusantium expedita nihil vel nulla, odit fuga, </tspan><tspan x="0" y="350">ad assumenda vitae ducimus corporis eum eos.</tspan><tspan x="0" y="375"></tspan><tspan x="0" y="400">Lorem ipsum dolor sit amet consectetur adipisicing elit. </tspan><tspan x="0" y="425">Culpa sapiente reiciendis error mollitia, ipsam ullam ipsa. </tspan><tspan x="0" y="450">Accusantium expedita nihil vel nulla, odit fuga, </tspan><tspan x="0" y="475">ad assumenda vitae ducimus corporis eum eos.</tspan></text><path class="c" d="M509.646,510.354l-510-510L.354-.354l510,510Z" transform="translate(310.5 413.5)"/><path class="c" d="M.354,510.354l-.707-.707,510-510,.707.707Z" transform="translate(310.5 413.5)"/><path class="c" d="M55,1A73.469,73.469,0,0,0,33.879,4.023a58.808,58.808,0,0,0-17.191,8.216A40.3,40.3,0,0,0,5.181,24.332a27.821,27.821,0,0,0,0,29.337A40.3,40.3,0,0,0,16.688,65.761a58.808,58.808,0,0,0,17.191,8.216,75.3,75.3,0,0,0,42.242,0,58.808,58.808,0,0,0,17.191-8.216,40.3,40.3,0,0,0,11.507-12.093,27.821,27.821,0,0,0,0-29.337A40.3,40.3,0,0,0,93.312,12.239,58.808,58.808,0,0,0,76.121,4.023,73.469,73.469,0,0,0,55,1m0-1c30.376,0,55,17.461,55,39S85.376,78,55,78,0,60.539,0,39,24.624,0,55,0Z" transform="translate(949 35)"/></g></svg>